# Blender 5.0.1
# www.blender.org
mtllib Maze2Base.mtl
o Plane.001
v -72.000000 0.000000 39.900002
v 0.000000 0.000000 17.099998
v 0.000000 0.000000 57.000000
v -72.000000 0.000000 0.000000
v 0.000000 0.000000 0.000000
v -72.000000 0.000000 17.099998
v -72.000000 0.000000 57.000000
v -66.491142 0.000000 39.900002
v -5.508856 0.000000 39.900002
v -17.113411 0.000000 57.000000
v -16.726690 0.000000 40.531986
v -55.273300 0.000000 40.531986
v -16.726690 0.000000 16.468014
v -55.273300 0.000000 16.468014
v -46.179207 0.000000 36.099998
v -54.886581 0.000000 5.248374
v -54.886581 0.000000 52.126907
v -55.273300 0.000000 11.281393
v -16.726690 0.000000 11.281393
v -46.179207 0.000000 11.281393
v -40.118999 0.000000 11.281393
v -31.880991 0.000000 11.281393
v -25.820789 0.000000 11.281393
v 0.000000 0.000000 39.900002
v -16.726690 0.000000 45.718605
v -46.179207 0.000000 45.718605
v -40.118999 0.000000 45.718605
v -31.880991 0.000000 45.718605
v -25.820789 0.000000 45.718605
v -5.508856 0.000000 17.099998
v -20.890728 0.000000 31.845802
v -51.109264 0.000000 31.845802
v -31.880991 0.000000 20.899998
v -66.491142 0.000000 17.099998
v -25.820789 0.000000 36.099998
v -54.886581 0.000000 57.000000
v -60.702045 0.000000 40.531986
v -60.702045 0.000000 25.154196
v -60.702045 0.000000 16.468014
v -60.702045 0.000000 31.845802
v -17.113411 0.000000 0.000000
v -11.297949 0.000000 16.468014
v -17.113411 0.000000 5.248374
v -17.113411 0.000000 52.126907
v -11.297949 0.000000 40.531986
v -11.297949 0.000000 25.154196
v -11.297949 0.000000 31.845802
v -20.890728 0.000000 36.099998
v -55.273300 0.000000 45.718605
v -51.109264 0.000000 25.154196
v -51.109264 0.000000 36.099998
v -20.890728 0.000000 25.154196
v -40.118999 0.000000 36.099998
v -40.118999 0.000000 20.899998
v -46.179207 0.000000 20.899998
v -25.820789 0.000000 20.899998
v -20.890728 0.000000 20.899998
v -51.109264 0.000000 20.899998
v -31.880991 0.000000 36.099998
v -54.886581 0.000000 0.000000
vn -0.0000 1.0000 -0.0000
vt 0.666667 0.666667
vt 0.555555 0.833333
vt 0.611111 0.666667
vt 0.611111 0.555556
vt 0.444444 0.750000
vt 0.000000 1.000000
vt 0.000000 0.666667
vt 0.555555 1.000000
vt 1.000000 0.000000
vt 0.555555 0.166667
vt 0.555556 0.000000
vt 0.466667 0.750000
vt 0.444444 0.833333
vt 0.533333 0.750000
vt 0.511111 0.750000
vt 0.488889 0.250000
vt 0.466667 0.388889
vt 0.466667 0.250000
vt 0.533333 0.611111
vt 0.511111 0.611111
vt 0.488889 0.611111
vt 0.466667 0.611111
vt 0.444444 0.666667
vt 0.388889 0.666667
vt 0.444444 0.166667
vt 0.533333 0.250000
vt 0.511111 0.250000
vt 0.666667 0.333333
vt 0.611111 0.333333
vt 0.333333 0.333333
vt 0.000000 0.333333
vt 0.000000 0.000000
vt 0.455555 0.444444
vt 0.388889 0.555556
vt 0.388889 0.444444
vt 0.611111 0.444444
vt 0.511111 0.388889
vt 0.333333 0.666667
vt 0.444444 0.000000
vt 0.544444 0.555556
vt 0.544444 0.444444
vt 0.555555 0.750000
vt 0.555555 0.666667
vt 0.555555 0.333333
vt 0.555555 0.250000
vt 1.000000 1.000000
vt 1.000000 0.666667
vt 0.444444 0.250000
vt 0.444444 0.333333
vt 0.388889 0.333333
vt 0.488889 0.750000
vt 0.488889 0.388889
vt 1.000000 0.333333
vt 0.533333 0.388889
vt 0.455555 0.388889
vt 0.455555 0.555556
vt 0.544444 0.611111
vt 0.544444 0.388889
vt 0.455555 0.611111
s 0
usemtl Material.002
f 30/1/1 43/2/1 42/3/1
f 30/1/1 42/3/1 46/4/1
f 18/5/1 4/6/1 6/7/1
f 30/1/1 41/8/1 43/2/1
f 3/9/1 44/10/1 10/11/1
f 20/12/1 43/2/1 16/13/1
f 23/14/1 43/2/1 22/15/1
f 27/16/1 15/17/1 26/18/1
f 56/19/1 22/15/1 33/20/1
f 54/21/1 20/12/1 55/22/1
f 14/23/1 18/5/1 39/24/1
f 17/25/1 29/26/1 28/27/1
f 9/28/1 45/29/1 44/10/1
f 8/30/1 1/31/1 7/32/1
f 32/33/1 38/34/1 40/35/1
f 9/28/1 46/4/1 47/36/1
f 9/28/1 47/36/1 45/29/1
f 29/26/1 59/37/1 28/27/1
f 8/30/1 39/24/1 34/38/1
f 36/39/1 8/30/1 7/32/1
f 47/36/1 52/40/1 31/41/1
f 42/3/1 19/42/1 13/43/1
f 45/29/1 11/44/1 25/45/1
f 42/3/1 43/2/1 19/42/1
f 44/10/1 25/45/1 29/26/1
f 19/42/1 43/2/1 23/14/1
f 20/12/1 16/13/1 18/5/1
f 30/1/1 5/46/1 41/8/1
f 2/47/1 5/46/1 30/1/1
f 3/9/1 9/28/1 44/10/1
f 49/48/1 12/49/1 37/50/1
f 20/12/1 21/51/1 43/2/1
f 21/51/1 22/15/1 43/2/1
f 27/16/1 53/52/1 15/17/1
f 56/19/1 23/14/1 22/15/1
f 54/21/1 21/51/1 20/12/1
f 6/7/1 34/38/1 18/5/1
f 17/25/1 44/10/1 29/26/1
f 17/25/1 28/27/1 27/16/1
f 17/25/1 27/16/1 26/18/1
f 17/25/1 26/18/1 49/48/1
f 17/25/1 49/48/1 37/50/1
f 3/9/1 24/53/1 9/28/1
f 35/54/1 31/41/1 59/37/1
f 31/41/1 52/40/1 59/37/1
f 51/55/1 15/17/1 32/33/1
f 32/33/1 50/56/1 38/34/1
f 9/28/1 30/1/1 46/4/1
f 37/50/1 40/35/1 8/30/1
f 8/30/1 38/34/1 39/24/1
f 40/35/1 38/34/1 8/30/1
f 17/25/1 37/50/1 8/30/1
f 34/38/1 39/24/1 18/5/1
f 36/39/1 17/25/1 8/30/1
f 47/36/1 46/4/1 52/40/1
f 44/10/1 45/29/1 25/45/1
f 56/19/1 52/40/1 57/57/1
f 32/33/1 55/22/1 50/56/1
f 53/52/1 54/21/1 55/22/1
f 59/37/1 33/20/1 54/21/1
f 59/37/1 56/19/1 33/20/1
f 59/37/1 52/40/1 56/19/1
f 48/58/1 31/41/1 35/54/1
f 55/22/1 58/59/1 50/56/1
f 15/17/1 53/52/1 32/33/1
f 53/52/1 55/22/1 32/33/1
f 59/37/1 54/21/1 53/52/1
f 29/26/1 35/54/1 59/37/1
f 18/5/1 16/13/1 4/6/1
f 4/6/1 16/13/1 60/13/1
